OFF
68 68 0
100 100 0
159 100 0
159 129 0
160 130 0
189 130 0
189 159 0
190 160 0
219 160 0
219 339 0
190 339 0
190 250 0
189 249 0
70 249 0
69 250 0
69 339 0
40 339 0
40 160 0
69 160 0
70 159 0
70 130 0
99 130 0
100 129 0
71 131 0
70 132 0
71 132 0
70 131 0
70 132 0
160 131 0
160 130 0
159 129 0
100 129 0
99 130 0
99 159 0
70 159 0
69 160 0
69 219 0
70 220 0
189 220 0
190 219 0
190 160 0
189 159 0
160 159 0
41 161 0
40 162 0
41 162 0
40 161 0
40 162 0
40 400 0
69 400 0
69 459 0
70 460 0
189 460 0
189 489 0
190 490 0
219 490 0
219 511 0
190 511 0
190 490 0
189 489 0
70 489 0
69 490 0
69 511 0
40 511 0
191 491 0
190 492 0
191 492 0
190 491 0
190 492 0
2 0 1
2 1 2
2 2 3
2 3 4
2 4 5
2 5 6
2 6 7
2 7 8
2 8 9
2 9 10
2 10 11
2 11 12
2 12 13
2 13 14
2 14 15
2 15 16
2 16 17
2 17 18
2 18 19
2 19 20
2 20 21
2 21 0
2 22 23
2 23 24
2 24 25
2 25 26
2 26 22
2 27 28
2 28 29
2 29 30
2 30 31
2 31 32
2 32 33
2 33 34
2 34 35
2 35 36
2 36 37
2 37 38
2 38 39
2 39 40
2 40 41
2 41 27
2 42 43
2 43 44
2 44 45
2 45 46
2 46 42
2 47 48
2 48 49
2 49 50
2 50 51
2 51 52
2 52 53
2 53 54
2 54 55
2 55 56
2 56 57
2 57 58
2 58 59
2 59 60
2 60 61
2 61 62
2 62 47
2 63 64
2 64 65
2 65 66
2 66 67
2 67 63
